<?xml version="1.0" standalone="no"?>
<!DOCTYPE svg PUBLIC "-//W3C//DTD SVG 20010904//EN"
 "http://www.w3.org/TR/2001/REC-SVG-20010904/DTD/svg10.dtd">
<svg version="1.0" xmlns="http://www.w3.org/2000/svg"
 width="471.000000pt" height="408.000000pt" viewBox="0 0 471.000000 408.000000"
 preserveAspectRatio="xMidYMid meet">

<g transform="translate(0.000000,408.000000) scale(0.100000,-0.100000)"
fill="#000000" stroke="none">
<path d="M3830 3799 c-217 -19 -367 -119 -414 -279 -54 -182 39 -355 255 -470
32 -17 59 -35 59 -39 0 -4 -26 -12 -59 -19 -121 -25 -235 -103 -283 -194 -32
-60 -32 -185 -1 -243 50 -94 171 -171 318 -201 121 -25 346 -16 436 18 138 51
225 123 276 226 25 50 28 68 28 152 0 82 -4 103 -27 152 -46 100 -173 213
-306 272 -23 10 -42 22 -42 26 0 4 25 12 55 19 81 18 189 76 228 122 60 70 72
168 31 254 -68 145 -289 226 -554 204z m198 -112 c27 -17 52 -46 69 -80 24
-45 27 -64 28 -142 0 -81 -3 -95 -30 -143 -16 -30 -42 -63 -59 -75 l-29 -21
-92 47 c-158 81 -225 157 -225 257 0 81 45 148 121 180 13 5 58 9 100 7 63 -2
82 -6 117 -30z m-108 -764 c202 -111 268 -214 229 -358 -14 -51 -81 -116 -136
-133 -67 -20 -161 -15 -218 12 -61 28 -87 56 -117 121 -32 69 -33 218 -1 286
27 61 89 129 117 129 11 0 68 -26 126 -57z"/>
<path d="M1451 3438 c-4 -13 -18 -50 -30 -83 -13 -33 -216 -586 -453 -1230
-236 -643 -450 -1219 -475 -1279 -90 -213 -167 -296 -306 -333 -62 -16 -67
-20 -67 -45 l0 -28 390 0 390 0 0 29 c0 28 -3 30 -72 45 -190 43 -229 121
-175 346 14 58 68 229 120 380 l95 275 516 3 c284 1 516 1 516 -1 0 -2 50
-145 110 -318 127 -359 142 -411 144 -494 2 -108 -50 -162 -185 -191 -76 -17
-79 -18 -79 -46 l0 -28 530 0 530 0 0 29 c0 27 -4 30 -52 41 -126 30 -206 99
-268 233 -21 45 -235 627 -475 1292 -240 666 -453 1257 -474 1315 l-38 105
-92 3 c-87 3 -92 2 -100 -20z m172 -1131 c131 -375 238 -685 237 -689 0 -9
-944 -11 -952 -3 -4 4 92 290 388 1153 42 122 79 222 83 222 3 0 113 -307 244
-683z"/>
<path d="M4113 2343 c9 -2 25 -2 35 0 9 3 1 5 -18 5 -19 0 -27 -2 -17 -5z"/>
<path d="M3740 1959 c-380 -28 -658 -290 -726 -683 -23 -129 -15 -398 15 -516
27 -106 95 -248 154 -321 83 -103 201 -184 330 -224 74 -24 91 -25 319 -25
239 0 240 0 328 30 49 16 118 43 154 59 l66 30 0 155 0 156 -67 -47 c-161
-110 -320 -163 -487 -163 -168 0 -275 40 -372 137 -56 58 -113 162 -139 258
-23 82 -31 332 -15 433 25 161 80 274 176 361 95 87 192 121 350 121 164 0
330 -56 487 -163 l67 -47 0 159 0 159 -72 30 c-211 87 -374 116 -568 101z"/>
</g>
</svg>
